PathFileType	4	(X/Y/Z)	Patient4_TMGait_0pt3_01_left_17.trc.trc
DataRate	CameraRate	NumFrames	NumMarkers	Units	OrigDataRate	OrigDataStartFrame	OrigNumFrames
53.030303030303	53.030303030303	6	33	mm	53.030303030303	71	       141
Frame#	Time	Sacral			L.Shoulder			Chest			R.Shoulder			Neck			R.ASIS			L.ASIS			R.Thigh.Superior			R.Thigh.Lateral			R.Thigh.Inferior			R.Patella			L.Thigh.Superior			L.Thigh.Lateral			L.Thigh.Inferior			L.Patella			L.Shank.Superior			L.Shank.Lateral			L.Shank.Inferior			R.Shank.Superior			R.Shank.Lateral			R.Shank.Inferior			R.Heel			R.Midfoot.Superior			R.Midfoot.Lateral			R.Toe			L.Heel			L.Midfoot.Lateral			L.Midfoot.Superior			L.Toe			L.Elbow			L.Wrist			R.Elbow			R.Wrist			
		X1	Y1	Z1	X2	Y2	Z2	X3	Y3	Z3	X4	Y4	Z4	X5	Y5	Z5	X6	Y6	Z6	X7	Y7	Z7	X8	Y8	Z8	X9	Y9	Z9	X10	Y10	Z10	X11	Y11	Z11	X12	Y12	Z12	X13	Y13	Z13	X14	Y14	Z14	X15	Y15	Z15	X16	Y16	Z16	X17	Y17	Z17	X18	Y18	Z18	X19	Y19	Z19	X20	Y20	Z20	X21	Y21	Z21	X22	Y22	Z22	X23	Y23	Z23	X24	Y24	Z24	X25	Y25	Z25	X26	Y26	Z26	X27	Y27	Z27	X28	Y28	Z28	X29	Y29	Z29	X30	Y30	Z30	X31	Y31	Z31	X32	Y32	Z32	X33	Y33	Z33	

71	32.920000000000	742.350953945201	998.445335487603	454.132527917431	966.902750476822	1438.416400760195	332.993456954817	1021.344276293646	1360.347171180816	511.859758621243	895.040710899831	1428.327588564928	660.070541687876	915.609335898103	1492.872583599312	486.285006970538	949.217227839750	943.744018483840	615.794037084613	984.439110473089	960.527050422684	342.738657800995	1032.900983803770	770.363533929503	591.084504235475	984.600642121596	646.633957571339	654.678586616325	1077.431160122356	610.780449356338	580.131678943141	1108.381803215228	523.129858633651	598.938376968796	1004.448984576381	734.862808225730	383.730129572968	912.339038876454	623.413022314208	313.077499281038	971.642100256568	541.603682490886	393.596699259644	961.575371798391	472.109850043544	404.403745838246	926.174311343028	402.380906529983	393.497799754977	829.710023304125	297.320745191520	336.142021618440	854.548189604218	184.360528811844	416.018931392586	1081.547231174090	433.007081786796	609.022996229891	1011.914410148820	327.576814064272	671.389988588237	1071.844818045333	232.950989251029	623.598345546539	959.301798748210	53.521001597258	594.009352730814	1124.367393218049	119.465017672830	640.523622196309	1041.214268328121	46.207949902462	669.004992345823	1245.612783099155	77.420659439482	669.389376018446	708.822397337604	37.797296061711	450.286931119194	785.826234215250	35.428807807073	372.787112576540	869.247925962981	94.818269030293	404.609176849282	997.859614208260	42.011060601208	379.584502834606	1119.470642806072	1156.532403709972	174.835705784325	1372.643562398857	1133.659002682715	230.760364490131	719.613791000203	1118.292839970525	718.050750829230	682.348324895462	859.386969440459	713.600713272369	
72	32.938857142857	743.995445346441	997.691176665523	456.011256661341	969.501338890398	1437.445047457038	335.920603415447	1022.269462274368	1359.700617959190	515.337574622828	894.984765991436	1428.464543113921	662.371956055142	917.061694929466	1492.245291358023	488.699427279999	949.586360392747	942.953275494885	619.061513601953	986.695996466634	959.689200767467	346.087544681362	1031.359208283617	767.506014697750	595.995960052742	979.991616691114	644.055436882295	658.236618024278	1073.373510780974	607.702689911191	584.807652762564	1103.007485153933	521.803666416442	602.240053810236	1003.601924150116	733.390702725956	386.153199310410	909.952489726329	623.417999872847	314.211663233283	967.648597655544	540.546486077190	394.386924304881	956.483744392983	471.369645581464	404.930725514303	921.314082544623	401.968931111073	393.937412297590	824.617448627382	297.219063988491	336.323437889951	849.038997808268	184.120529230720	416.106465980761	1079.519806564470	431.445423066664	612.168975759281	1013.832353360658	323.466599523630	674.853625897863	1076.754734072694	230.937405405781	626.508124301526	969.501920330632	49.159279810593	597.664339665821	1133.513433360987	117.889926075226	642.264295304237	1052.403993013789	43.039534605624	671.712469621719	1256.236507831284	78.351311352027	669.740787928972	703.112630993153	37.675862303889	450.273738852267	780.103806078441	35.335921577629	372.769295182574	863.494447851381	94.733843872062	404.633442301821	992.118945334975	41.956068523851	379.639505754914	1125.517563287603	1158.033286884474	178.503240333164	1378.989060612782	1145.665415069923	235.392000518565	715.588565448918	1121.250495342011	718.440194605874	677.367354259861	862.313290199831	713.900805756642	
73	32.957714285714	745.992871593474	996.509723832072	458.374393666812	971.882856421155	1436.189505234366	339.059339416336	1023.264471928720	1358.822617436709	518.949743207039	895.132392463606	1428.201419736203	664.977000630118	918.478910351797	1491.311323674585	491.411675347978	950.397399493205	941.853674288477	622.495538553201	989.215944137664	958.570637523288	349.632238259242	1030.403974180541	764.381801555518	600.869472541565	975.963910043440	641.231496951245	661.566383385393	1069.915449430025	604.447976000512	589.226483244468	1097.988344871419	519.868623577773	605.312075426592	1003.370970534234	731.747628285550	388.700493617506	908.202019124786	623.173618088907	315.688679483543	964.465430228590	539.315879615976	395.454610157459	952.277875069828	470.376670514475	405.752051868810	917.136820960691	401.303737608373	394.653041729230	819.967429041029	297.098823310553	336.708796612202	843.746484910593	183.757385295076	416.289020960693	1077.193139788302	429.333090414758	615.090952674182	1014.439126557524	319.508989860930	677.743247921638	1079.583396881019	228.697006103150	628.960156501644	976.136389826043	45.890591588456	600.446018094658	1139.467137788736	115.972603461766	643.571398992785	1059.633600434500	40.554149295071	673.922402918321	1263.054751287465	77.900448962011	670.219085238744	697.407324604175	37.548418065205	450.253996668506	774.395853284007	35.244222042252	372.758372743848	857.755562865340	94.647322962109	404.679092023180	986.393945644177	41.858031016739	379.685426609855	1130.925316062478	1158.842360022668	182.467596074600	1384.397197383247	1156.276224035411	239.953512065930	713.254134920053	1122.924034190429	719.323920273013	674.956336918973	863.798233634184	714.945057847573	
74	32.976571428571	748.326279434682	995.073580954960	461.180897005132	974.111116145324	1434.788554811128	342.429277051883	1024.362199285466	1357.831862661631	522.726474842190	895.485244838963	1427.655661195228	667.896325926560	919.888260444954	1490.192145017423	494.435310394541	951.621387776268	940.587721542585	626.109022311541	991.982601128866	957.288924378830	353.394705661046	1030.106098335793	761.252717474024	605.604671096921	972.712008551944	638.392670406618	664.629662894524	1067.244684383511	601.271076465973	593.330939387824	1093.598883234444	517.552466204685	608.150758511025	1003.700557920928	729.992031496980	391.408962180109	907.026367291056	622.746979260311	317.543021359215	962.022577733958	537.965260036135	396.854112698497	948.898775179054	469.173510577082	406.910276490469	913.571040333330	400.450851276106	395.668610032475	815.703379193283	297.021124047958	337.315544433204	838.648261686911	183.324047842444	416.571546458594	1074.814041862464	426.862524828065	617.750645885967	1013.967918030447	315.813790025754	680.054233975879	1080.569777329023	226.290082805714	630.900071376690	979.384656826063	43.603503502603	602.318476984414	1142.474554222578	113.749890292015	644.395551534539	1063.130458664720	38.679203831202	675.582590841298	1266.379140654507	76.132814889854	670.721354134471	691.703339867716	37.447523020480	450.218056886947	768.705341783726	35.170594161926	372.754569654088	852.040295113895	94.576521199693	404.738525957878	980.689766937929	41.712749393607	379.717358917813	1135.685927431724	1159.064825645009	186.675568938699	1388.931169442111	1165.454826092583	244.418334994358	712.527962691054	1123.419939946469	720.766300330713	674.961556959250	863.979180630672	716.775002885894	
75	32.995428571429	750.949536921376	993.567246855293	464.377552636210	976.263524839178	1433.379781396712	346.041518339864	1025.597762349836	1356.842348579311	526.690323933687	896.053294155129	1426.961599994072	671.127304069574	921.328009048280	1489.016340874852	497.768439382424	953.212287127382	939.302773974844	629.912921898392	994.950663233834	955.966208127866	357.383769898363	1030.496610772140	758.365979745439	610.120674085953	970.387830736732	635.761030307479	667.433403803537	1065.484520202477	598.398354497527	597.089819559419	1090.055661595760	515.089410535128	610.768561987156	1004.498080827072	728.198651482630	394.305955706798	906.340694111312	622.215994597527	319.786051233268	960.231887364393	536.560620957392	398.613753164708	946.272197769195	467.815923040883	408.417095145404	910.537369451570	399.487885159073	396.986132788365	811.764303403408	297.053144189740	338.151080829556	833.725304153267	182.884012211167	416.952746342272	1072.611705937479	424.243947690851	620.134873633788	1012.721845340018	312.496046526308	681.851212445319	1080.043537584048	223.818794730982	632.327021226423	979.629541572593	42.160015927243	603.351368762327	1142.930976071553	111.329508572818	644.743698663642	1063.355227376562	37.343243911315	676.702959915090	1266.698726481485	73.276068609485	671.136417069188	685.999328444181	37.423334073756	450.158886780551	763.036906365300	35.140965436867	372.758458090446	846.364912391419	94.541319651863	404.803143220571	975.013997149542	41.516204756395	379.730655607732	1139.814148545866	1158.817805031968	191.070822101741	1392.677295514176	1173.190704177901	248.765253985918	713.285026931816	1122.914543460566	722.808063668182	677.193586288251	863.068622859621	719.421060198093	
76	33.014285714286	753.789081111541	992.165787070193	467.904952815933	978.415460995055	1432.086474092930	349.895624338033	1027.002451389880	1355.951923967730	530.850595078630	896.852920845585	1426.253536451482	674.654723136851	922.840079592421	1487.906085418186	501.394545744200	955.113657753365	938.132713766517	633.908903125740	998.046860283915	954.717511672178	361.587043885282	1031.559992445412	755.924183092364	614.361695404028	969.080652345239	633.523144230652	670.026101526596	1064.675315288413	596.001359564849	600.497711128538	1087.489150168376	512.692108673881	613.190364327347	1005.649950947551	726.453790991056	397.399381449883	906.053006366756	621.660609725624	322.403031585291	959.009811763075	535.173988034508	400.729672293677	944.330544387483	466.365531515691	410.249251738113	907.967911590138	398.495308236733	398.583348000355	808.098817300146	297.263504314979	339.211700096827	828.969592266734	182.506242495771	417.423599415537	1070.764720651682	421.677616207038	622.256737356206	1011.021192444441	309.657887363377	683.253033212620	1078.374898802861	221.406319468547	633.292650571335	977.401253582081	41.398797970764	603.697390777191	1141.318956207709	108.865417261693	644.681131899447	1060.929569161852	36.469911858830	677.349649090689	1264.611381420921	69.684942742210	671.381180601173	680.297915751911	37.546060229242	450.073444382621	757.397271861050	35.191557588485	372.770840108988	840.754666017002	94.562094723657	404.863346915943	969.376554079863	41.265668054568	379.721350621356	1143.343630891961	1158.219665156001	195.599183244301	1395.738781194295	1179.493616911180	252.978815516543	715.360947195329	1121.631881309869	725.461519784512	681.423925200764	861.328550530403	722.895547780995	
